<svg xmlns="http://www.w3.org/2000/svg" width="320" height="100" viewBox="0 0 320 100"><style>.st0{fill:#008fb8}.st1{fill:#888585}</style><path d="M48.85 58.472c5.233-2.395 10.23-5.824 14.477-9.14a33.37 33.37 0 0 1 3.53-2.257c2.903-1.598 6.146-2.788 9.323-3.027 3.676-.276 7.265.72 10.125 3.822 3.03 3.083 3.574 7.568 2.652 12.047 3.077-7.416 1.838-13.543-7.975-20.422l.01.004c3.753 1.147 9.21 3.8 10.352 7.445-.5-1.598-.463-5.218-8.644-11.054l.008-.007c4.34.664 8.75 4.434 9.827 6.895-1.076-2.456-2.538-6.872-8.807-10.217-4.178-2.232-9.524-4.38-18.668-1.845-4.693 1.302-12.914 8.115-15.682 12.49 3.795-2.67 8.312-4.725 13.223-5.995l.012.01c-5.478 2.81-9.873 6.732-12.652 11.275 3.952-2.938 8.744-5.186 13.968-6.536l.008-.007c-7.535 3.865-13.043 9.762-15.086 16.52m62.689-25.745a9.083 9.083 0 0 0-3.78-.854c-1.275 0-2.926.6-2.926 2.76 0 3.438 8.14 1.988 8.14 8.644 0 4.35-3.218 5.998-6.97 5.998-2.02 0-2.926-.283-4.762-.768l.348-3.583c1.275.74 2.74 1.223 4.2 1.223 1.41 0 3.3-.767 3.3-2.56 0-3.78-8.14-2.217-8.14-8.786 0-4.435 3.218-6.056 6.49-6.056 1.597 0 3.09.23 4.443.71l-.344 3.272zm12.085 7.448c-.107-1.847-.905-3.44-2.9-3.44-1.996 0-3.006 1.48-3.166 3.44h6.065zm2.393 7.933c-1.304.768-2.794 1.165-4.71 1.165-4.52 0-7.154-2.785-7.154-7.59 0-4.24 2.102-7.737 6.357-7.737 5.08 0 6.518 3.727 6.518 8.846h-9.47c.16 2.36 1.702 3.696 3.91 3.696 1.73 0 3.22-.683 4.55-1.48v3.1zm7.526-1.619c1.09 0 1.94-.513 2.5-1.308.584-.826.746-1.877.746-3.015h-1.544c-1.598 0-3.963.282-3.963 2.53 0 1.25.983 1.793 2.26 1.793m-4.177-11.43c1.383-.684 3.246-1.11 4.763-1.11 4.175 0 5.904 1.848 5.904 6.17v1.876c0 1.48.026 2.587.054 3.67.026 1.108.08 2.13.16 3.27h-3.14c-.132-.768-.132-1.736-.16-2.19h-.052c-.825 1.62-2.608 2.53-4.23 2.53-2.42 0-4.79-1.564-4.79-4.35 0-2.19.985-3.47 2.343-4.18 1.355-.71 3.11-.853 4.6-.853h1.97c0-2.36-.984-3.156-3.087-3.156-1.517 0-3.032.624-4.23 1.592l-.107-3.27zm13.164-7.45h3.565v21.324h-3.566zm-39.104 37.122h2.05c.513 0 1.036-.058 1.568-.17a4.786 4.786 0 0 0 1.437-.513 3.11 3.11 0 0 0 1.092-1.14c.284-.492.426-1.117.426-1.876 0-.738-.125-1.326-.373-1.763a3.015 3.015 0 0 0-1.037-.965 3.91 3.91 0 0 0-1.305-.455c-.48-.06-.923-.086-1.33-.086h-2.526v6.968zm-.055 9.468h1.918c.638 0 1.27-.065 1.888-.2.62-.113 1.188-.3 1.703-.565a3.202 3.202 0 0 0 1.224-1.196c.302-.512.453-1.146.453-1.905 0-.89-.15-1.602-.453-2.133a2.914 2.914 0 0 0-1.278-1.167 5.372 5.372 0 0 0-1.78-.51 23.145 23.145 0 0 0-2.05-.086h-1.624v7.76zm-1.834-18.142h4.417c1.577-.02 2.943.313 4.098.998 1.153.718 1.748 2.016 1.784 3.894 0 2.522-1.13 4.028-3.38 4.52v.058c1.188.23 2.138.74 2.847 1.537.71.796 1.074 1.857 1.09 3.184-.034 2.123-.743 3.603-2.126 4.437-.64.417-1.394.73-2.262.937a12.71 12.71 0 0 1-2.768.286h-3.698V56.058zm21.158 12.54h-.48c-.726 0-1.453.02-2.18.058a7.685 7.685 0 0 0-2.076.483c-.62.227-1.116.577-1.49 1.05-.408.476-.61 1.11-.61 1.906 0 .93.284 1.594.85 1.99.533.42 1.188.625 1.97.625.975 0 1.745-.205 2.312-.623.552-.397.95-.873 1.198-1.422a4.93 4.93 0 0 0 .45-1.735c.036-.587.056-1.07.056-1.45v-.88zm.16 4.977h-.055a4.208 4.208 0 0 1-1.782 1.962 5.257 5.257 0 0 1-2.526.71c-.94-.018-1.703-.18-2.287-.482-.604-.284-1.066-.646-1.384-1.08-.566-.948-.832-1.792-.798-2.53 0-1.214.274-2.17.825-2.873a4.384 4.384 0 0 1 2.048-1.507c.834-.323 1.74-.53 2.714-.627.956-.058 1.88-.083 2.767-.083h.318v-.74c.053-2.484-.977-3.728-3.086-3.728-1.4-.018-2.73.38-3.99 1.195v-1.706a9.24 9.24 0 0 1 3.99-1.022c3.208-.04 4.796 1.763 4.76 5.4v6.4a23.021 23.021 0 0 0 .134 3.044h-1.65v-2.333zm7.791-.085h.026l3.912-12.085h1.756l-5.428 16.666c-.302 1.042-.718 1.95-1.25 2.73a2.9 2.9 0 0 1-.958.88c-.373.23-.8.353-1.278.37-.62 0-1.223-.076-1.808-.228l.158-1.534c.16.056.336.103.533.14.192.06.434.086.718.086.69-.018 1.213-.32 1.568-.91.355-.55.648-1.3.88-2.245l.345-1.28-4.814-14.674h1.836l3.804 12.084z" class="st0"/><path d="M39.055 66.197a37.445 37.445 0 0 1-1.61-3.216c.68 2.592 1.07 6.716-6.796 9.08-1.164.348-2.285 1.125-2.308 1.45-.02.264 1.176.097 1.694.075 0 0 12.027.49 12.027-3.305-1.02-1.047-2.045-2.38-3.008-4.083" class="st1"/><path d="M33.292 47.35c-.004-.03-.013-.065-.02-.1-1.282-.193-2.557-.638-3.84-1.334-5.028-2.725-5.542-10.19-3.808-15.368 1.734-5.186 5.104-9.046 5.104-9.046-3.062 2.364-5.666 5.953-7.504 10.37 1.067-5.413 3.646-10.35 5.967-13.924-.267.415-4.228 4.51-7.136 12.207a32.372 32.372 0 0 0-1.296 4.31c-.9 3.632-.987 7.067-.325 10.926.56 2.758 1.39 4.966 2.99 6.91 3.602 4.398 7.916 6.365 12.49 6.75-1.038-3.064-1.98-6.82-2.573-11.338-.022-.17-.037-.293-.048-.363" class="st0"/><path d="M91.04 64.99s-.612-.806-.41-.907c.35-.176 1.41.254.685-.5-.276-.288-.938-1.006-2.346-1.796-.587-.33-2.23-1.417-5.732-2.774-8.554-3.316-21.587-5.188-29.578-9.395-2.455-1.294-3.46-2.347-5.317-4.164-.445-.88-3.002-4.17-3.543-5.058-2.313-3.8-5.46-7.3-9.148-7.14l-.122-.002c-.433-.002-1.976.09-3.628 1.313-.013.013-.26.262-.653.544.156-.016.323-.01.494.032.743.19.95.89.67 1.202-.284.31-.71.244-1.167.07-.456-.177-.938-.33-.937-.657 0-.04.01-.08.03-.123-.425.19-.905.334-1.422.332-.08 0-.57.036-.65.046-.898.134-1.21 1.183-1.01 2.01.703 2.903 1.48 2.24 4.8 5.027 0 0 1.067.755 1.564 2.77.2.52.38 1.048.437 1.387l.052.39c.642 4.898 1.7 8.89 2.843 12.055.927 2.568 1.907 4.597 2.765 6.114.943 1.666 1.947 2.958 2.947 3.964 3.163 3.19 6.262 3.496 7.124 3.515-.01-.28-.025-.938.044-1.643.088-.866.806-2.498 1.11-3.027-2.05-1.692-2.15-3.814-2.153-3.91a.433.433 0 0 1 .4-.46c.232-.01.423.184.43.425 0 .024.01.188.068.447.146.672.606 1.97 2.065 3.03l.373.27-.286.377c-.072.097-2.148 2.567-.71 6.26.333.857 1.507 2.813 4.392 3.556 4.857 1.247 7.84.73 9.025.528 4.6-.787 5.236-1.49 4.244-1.913l-.918-.424c-.748-.35-.608-.687-1.358-1.034-.746-.348-.886-.007-1.633-.356-.747-.347-.608-.686-1.356-1.034-.748-.348-.887-.008-1.635-.355-.75-.348-.79-1.05-1.54-1.397-.004 0-.765-.425-1.724-.537-.33-.04-.515-.434-.708-.665-.173-.204-.334-.4-.486-.462a15.43 15.43 0 0 0-1.78-.543h-.005a.761.761 0 0 0-.07-.016.454.454 0 0 1-.336-.345.622.622 0 0 1-.008-.203c.05-.254.278-.414.515-.363.533.11 1.456.39 1.986.597.36.142.61.445.84.714.158.193.305.375.46.462.134.074.35.135.58.125 2.735-.125 4.01 1.374 4.01 1.374a13.868 13.868 0 0 0-3.513-4.014h.005a14.641 14.641 0 0 1 4.892 3.367c-.873-2.21-2.37-4.188-4.324-5.703 2.492 1.058 4.633 2.76 6.146 4.894a12.881 12.881 0 0 0-2.124-5.102l.006-.014c1.59 1.326 3.445 3.004 4.925 4.858a58.434 58.434 0 0 0 8.748-3.92c.112-.054 2.164-.996 3.985-.99 1.097.002 1.897.348 2.386 1.024.566.788.668 1.995.3 3.582-.284.975.655 1.74 2.22 1.746.72.002 1.566-.27 2.523-.812.042-.025 2.425-1.233 2.734-3.2.17-1.085-.33-2.246-1.493-3.445z" class="st1"/></svg>