<?xml version="1.0" encoding="UTF-8"?><!DOCTYPE svg PUBLIC "-//W3C//DTD SVG 1.1//EN" "http://www.w3.org/Graphics/SVG/1.1/DTD/svg11.dtd"><svg xmlns="http://www.w3.org/2000/svg"><symbol id="S3-icon-facebook" viewBox="0 0 30 30"><path d="M0 0v30h30V0H0zm18.8 9.5H17c-.3 0-.7.2-.7.8V12h2.6l-.2 2.9h-2.4v8.3h-3.5v-8.3h-1.6V12h1.6v-1.9c0-1.4.6-3.5 3.5-3.5h2.6v2.9h-.1z"/></symbol><symbol id="S3-icon-instagram" viewBox="0 0 30 30"><path d="M0 0v30h30V0H0zm23 21.153c0 1.02-.827 1.847-1.847 1.847H8.845A1.845 1.845 0 0 1 7 21.153V8.846C7 7.826 7.825 7 8.844 7h12.31C22.172 7 23 7.826 23 8.846v12.307z"/><path d="M19.762 13.77c.1.392.16.804.16 1.23a4.922 4.922 0 0 1-9.844 0c0-.426.06-.838.162-1.23H8.846v6.77c0 .338.276.614.617.614H20.54c.34 0 .616-.276.616-.615v-6.77H19.76zm-1.07-1.848h1.847c.34 0 .612-.276.612-.616V9.46a.615.615 0 0 0-.616-.615H18.69a.615.615 0 0 0-.615.616v1.85c0 .34.276.615.615.615z"/><circle cx="14.999" cy="15" r="3.078"/></symbol><symbol id="S3-icon-subscribe" viewBox="0 0 30 30"><path d="M0 0v30h30V0H0zm7.222 24.594l5.997-4.95c.367.246.792.472 1.11.58.471.16 1.248.16 1.703-.002.361-.125.877-.422 1.274-.718l5.578 5.082-15.662.008zm10.918-8.218c0 .29-.203.526-.452.526h-5.206c-.25 0-.454-.235-.454-.526 0-.292.203-.528.454-.528h5.206c.249 0 .452.236.452.528zm-6.562-2.063c-.338 0-.612-.235-.612-.526 0-.291.274-.528.612-.528h7.013c.346 0 .62.237.62.528 0 .29-.274.526-.62.526h-7.013zm-5.48-.763l5.915 5.098L6 23.61V13.586a.49.49 0 0 1 .009-.103.631.631 0 0 1 .09.067zm17.24-1.479a.6.6 0 0 1-.218.458l-2.352 2.028v-2.898c0-.412-.391-.749-.86-.749h-9.54c-.48 0-.87.337-.87.749v2.898l-2.356-2.028a.6.6 0 0 1-.219-.458c0-.174.078-.337.22-.458l7.455-6.424A.813.813 0 0 1 15.13 5c.201 0 .392.067.532.188l7.457 6.425a.6.6 0 0 1 .22.458zm.923 11.682l-5.772-5.26 5.677-4.92c.034-.03.065-.052.087-.067.005.026.008.06.008.1v10.147z"/></symbol><symbol id="S3-icon-twitter" viewBox="0 0 30 30"><path d="M0 0v30h30V0H0zm22.539 11.726c.007.162.011.324.011.488 0 4.996-3.802 10.756-10.754 10.756-2.136 0-4.123-.624-5.796-1.69.296.027.597.052.901.052a7.58 7.58 0 0 0 4.696-1.619 3.78 3.78 0 0 1-3.533-2.617 3.824 3.824 0 0 0 1.708-.062 3.783 3.783 0 0 1-3.033-3.708l.001-.05a3.779 3.779 0 0 0 1.712.475 3.816 3.816 0 0 1-1.683-3.159c0-.692.187-1.342.512-1.9a10.735 10.735 0 0 0 7.791 3.95 3.78 3.78 0 0 1 6.436-3.448 7.626 7.626 0 0 0 2.4-.917 3.802 3.802 0 0 1-1.662 2.09 7.598 7.598 0 0 0 2.175-.596 7.676 7.676 0 0 1-1.882 1.955"/></symbol><symbol id="S3-icon-youtube" viewBox="0 0 30 30"><path d="M0 0v30h30V0H0zm13.654 4.001l-1.507 4.98v3.39h-1.254v-3.39c-.113-.6-.364-1.48-.764-2.648C9.864 5.557 9.59 4.777 9.326 4h1.316l.89 3.288L12.387 4h1.267v.001zm3.35 6.352c0 .663-.115 1.155-.348 1.466-.313.427-.755.639-1.32.639-.564 0-1.004-.212-1.316-.64-.24-.31-.354-.804-.354-1.465V8.168c0-.667.115-1.155.354-1.47.312-.427.752-.64 1.316-.64.566 0 1.004.213 1.32.64.236.315.348.804.348 1.47v2.185zm4.18 2.017h-1.13v-.68c-.448.517-.88.767-1.292.767-.363 0-.614-.15-.728-.465-.062-.19-.1-.486-.1-.926V6.132h1.128v4.595c0 .263 0 .4.016.439.023.175.115.264.264.264.226 0 .462-.174.716-.53V6.134h1.134v6.236h-.008zm3.324 7.104c0 1.444-.004 2.974-.324 4.376-.225.984-1.032 1.71-2.002 1.82-2.153.241-4.334.254-6.508.254h-.842c-2.174 0-4.354-.015-6.51-.254-.969-.11-1.774-.836-2-1.82C6 22.447 6 20.917 6 19.474c0-1.44.003-2.973.326-4.374.226-.984 1.03-1.711 2-1.82 2.155-.241 4.335-.256 6.508-.256h.845c2.174 0 4.352.016 6.508.256.967.109 1.774.836 2.002 1.82.321 1.401.319 2.931.319 4.374zm-1.404 2.75c.01-.112.024-.36.024-.718v-.166H21.99c0 .447-.016.698-.023.76-.067.3-.22.448-.496.448-.388 0-.577-.288-.577-.857v-1.093h2.244V19.32c0-.66-.116-1.141-.347-1.457-.311-.42-.761-.63-1.32-.63-.577 0-1.018.21-1.341.63-.24.313-.347.797-.347 1.457v2.161c0 .658.118 1.143.357 1.455.323.42.764.63 1.356.63.582 0 1.042-.22 1.355-.67.129-.2.215-.423.253-.673zm-2.213-2.56v-.578c0-.572.187-.857.561-.857.371 0 .558.294.558.857v.578h-1.119zm-2.095 3.204c.073-.26.115-.671.115-1.241v-2.46c0-.583-.038-.994-.115-1.24-.15-.461-.44-.696-.897-.696-.41 0-.795.222-1.155.67v-2.707h-1.117v8.286h1.117v-.598c.374.462.76.682 1.155.682.447-.002.747-.236.897-.696zm-1.008-1.155c0 .558-.162.834-.487.834-.184 0-.372-.088-.559-.276v-3.763c.187-.185.375-.271.56-.271.32 0 .486.286.486.843v2.633zm-4.25 1.766h1.12v-6.176h-1.12v4.72c-.247.347-.481.524-.706.524-.15 0-.234-.088-.262-.261-.01-.036-.01-.173-.01-.436v-4.547h-1.119v4.884c0 .436.038.73.099.917.114.313.36.458.721.458.411 0 .833-.248 1.278-.758v.675zm-3.6-7.117h1.34v-1.168h-3.9v1.168h1.316v7.117H9.94v-7.117zm5.936-5.798V7.94c0-.577-.174-.863-.532-.863-.364 0-.536.287-.536.863v2.624c0 .58.174.865.536.865.358 0 .532-.287.532-.865z"/></symbol></svg>